<mxfile host="app.diagrams.net" agent="Mozilla/5.0 (Windows NT 10.0; Win64; x64) AppleWebKit/537.36 (KHTML, like Gecko) Chrome/138.0.0.0 Safari/537.36" version="27.1.6">
  <diagram name="Página-1" id="bU3Xe5b8Y3HX7JvodjxR">
    <mxGraphModel grid="1" page="1" gridSize="10" guides="1" tooltips="1" connect="1" arrows="1" fold="1" pageScale="1" pageWidth="827" pageHeight="1169" math="0" shadow="0">
      <root>
        <mxCell id="0" />
        <mxCell id="1" parent="0" />
        <mxCell id="pTJZXZqyClFcaM7wsfBn-2" value="&lt;div&gt;&lt;br&gt;&lt;/div&gt;&lt;div&gt;&lt;br&gt;&lt;/div&gt;" style="text;html=1;align=center;verticalAlign=middle;resizable=0;points=[];autosize=1;strokeColor=none;fillColor=none;" vertex="1" parent="1">
          <mxGeometry x="255" y="89" width="20" height="40" as="geometry" />
        </mxCell>
        <mxCell id="pTJZXZqyClFcaM7wsfBn-4" value="&lt;font style=&quot;font-size: 24px;&quot;&gt;Becado&lt;/font&gt;" style="rounded=0;whiteSpace=wrap;html=1;fillColor=none;" vertex="1" parent="1">
          <mxGeometry x="420" y="109" width="150" height="77" as="geometry" />
        </mxCell>
        <mxCell id="pTJZXZqyClFcaM7wsfBn-5" value="&lt;u&gt;ID_Becado&lt;/u&gt;" style="ellipse;whiteSpace=wrap;html=1;fillColor=none;" vertex="1" parent="1">
          <mxGeometry x="325" y="203" width="70" height="40" as="geometry" />
        </mxCell>
        <mxCell id="pTJZXZqyClFcaM7wsfBn-6" value="Apellido" style="ellipse;whiteSpace=wrap;html=1;fillColor=none;" vertex="1" parent="1">
          <mxGeometry x="420" y="243" width="60" height="40" as="geometry" />
        </mxCell>
        <mxCell id="pTJZXZqyClFcaM7wsfBn-7" value="Nombre" style="ellipse;whiteSpace=wrap;html=1;fillColor=none;" vertex="1" parent="1">
          <mxGeometry x="505" y="243" width="70" height="40" as="geometry" />
        </mxCell>
        <mxCell id="pTJZXZqyClFcaM7wsfBn-8" value="Genero" style="ellipse;whiteSpace=wrap;html=1;fillColor=none;" vertex="1" parent="1">
          <mxGeometry x="265" y="163" width="70" height="40" as="geometry" />
        </mxCell>
        <mxCell id="pTJZXZqyClFcaM7wsfBn-9" value="Fecha_Nacimiento" style="ellipse;whiteSpace=wrap;html=1;fillColor=none;" vertex="1" parent="1">
          <mxGeometry x="235" y="100" width="110" height="40" as="geometry" />
        </mxCell>
        <mxCell id="pTJZXZqyClFcaM7wsfBn-10" value="Dni" style="ellipse;whiteSpace=wrap;html=1;fillColor=none;" vertex="1" parent="1">
          <mxGeometry x="315" y="40" width="65" height="40" as="geometry" />
        </mxCell>
        <mxCell id="pTJZXZqyClFcaM7wsfBn-11" value="Direccion" style="ellipse;whiteSpace=wrap;html=1;fillColor=none;" vertex="1" parent="1">
          <mxGeometry x="414" y="20" width="80" height="40" as="geometry" />
        </mxCell>
        <mxCell id="pTJZXZqyClFcaM7wsfBn-12" value="Localidad" style="ellipse;whiteSpace=wrap;html=1;fillColor=none;" vertex="1" parent="1">
          <mxGeometry x="510" y="17" width="80" height="40" as="geometry" />
        </mxCell>
        <mxCell id="pTJZXZqyClFcaM7wsfBn-13" value="Provincia" style="ellipse;whiteSpace=wrap;html=1;fillColor=none;" vertex="1" parent="1">
          <mxGeometry x="615" y="43" width="70" height="40" as="geometry" />
        </mxCell>
        <mxCell id="pTJZXZqyClFcaM7wsfBn-15" value="Cobertura_Medica" style="ellipse;whiteSpace=wrap;html=1;fillColor=none;" vertex="1" parent="1">
          <mxGeometry x="645" y="89" width="105" height="40" as="geometry" />
        </mxCell>
        <mxCell id="pTJZXZqyClFcaM7wsfBn-16" value="ONG" style="ellipse;whiteSpace=wrap;html=1;fillColor=none;" vertex="1" parent="1">
          <mxGeometry x="650" y="159" width="80" height="40" as="geometry" />
        </mxCell>
        <mxCell id="pTJZXZqyClFcaM7wsfBn-18" value="&lt;font style=&quot;font-size: 24px;&quot;&gt;Beca&lt;/font&gt;" style="rounded=0;whiteSpace=wrap;html=1;fillColor=none;" vertex="1" parent="1">
          <mxGeometry x="740" y="392" width="130" height="60" as="geometry" />
        </mxCell>
        <mxCell id="pTJZXZqyClFcaM7wsfBn-19" value="&lt;u&gt;ID_Beca&lt;/u&gt;" style="ellipse;whiteSpace=wrap;html=1;fillColor=none;" vertex="1" parent="1">
          <mxGeometry x="825" y="536" width="80" height="40" as="geometry" />
        </mxCell>
        <mxCell id="pTJZXZqyClFcaM7wsfBn-20" value="Tiene" style="rhombus;whiteSpace=wrap;html=1;fillColor=none;" vertex="1" parent="1">
          <mxGeometry x="600" y="300" width="70" height="60" as="geometry" />
        </mxCell>
        <mxCell id="pTJZXZqyClFcaM7wsfBn-21" value="Año_Inicio" style="ellipse;whiteSpace=wrap;html=1;fillColor=none;" vertex="1" parent="1">
          <mxGeometry x="905" y="502" width="80" height="40" as="geometry" />
        </mxCell>
        <mxCell id="pTJZXZqyClFcaM7wsfBn-22" value="Mes_Inicio" style="ellipse;whiteSpace=wrap;html=1;fillColor=none;" vertex="1" parent="1">
          <mxGeometry x="1035" y="422" width="80" height="40" as="geometry" />
        </mxCell>
        <mxCell id="pTJZXZqyClFcaM7wsfBn-25" value="Provincia" style="ellipse;whiteSpace=wrap;html=1;fillColor=none;" vertex="1" parent="1">
          <mxGeometry x="1000" y="372" width="80" height="40" as="geometry" />
        </mxCell>
        <mxCell id="pTJZXZqyClFcaM7wsfBn-26" value="Tipo_Beca" style="ellipse;whiteSpace=wrap;html=1;fillColor=none;" vertex="1" parent="1">
          <mxGeometry x="920" y="322" width="80" height="40" as="geometry" />
        </mxCell>
        <mxCell id="pTJZXZqyClFcaM7wsfBn-27" value="Estado" style="ellipse;whiteSpace=wrap;html=1;fillColor=none;" vertex="1" parent="1">
          <mxGeometry x="855" y="284" width="80" height="40" as="geometry" />
        </mxCell>
        <mxCell id="pTJZXZqyClFcaM7wsfBn-28" value="Modalidad" style="ellipse;whiteSpace=wrap;html=1;fillColor=none;" vertex="1" parent="1">
          <mxGeometry x="765" y="260" width="80" height="40" as="geometry" />
        </mxCell>
        <mxCell id="pTJZXZqyClFcaM7wsfBn-29" value="Año_Cambio" style="ellipse;whiteSpace=wrap;html=1;fillColor=none;" vertex="1" parent="1">
          <mxGeometry x="685" y="300" width="80" height="40" as="geometry" />
        </mxCell>
        <mxCell id="pTJZXZqyClFcaM7wsfBn-30" value="Año_Abandono" style="ellipse;whiteSpace=wrap;html=1;fillColor=none;" vertex="1" parent="1">
          <mxGeometry x="530" y="422" width="90" height="40" as="geometry" />
        </mxCell>
        <mxCell id="pTJZXZqyClFcaM7wsfBn-31" value="Año_Egreso" style="ellipse;whiteSpace=wrap;html=1;fillColor=none;" vertex="1" parent="1">
          <mxGeometry x="730" y="542" width="80" height="40" as="geometry" />
        </mxCell>
        <mxCell id="pTJZXZqyClFcaM7wsfBn-32" value="Pedido_PC" style="ellipse;whiteSpace=wrap;html=1;fillColor=none;" vertex="1" parent="1">
          <mxGeometry x="575" y="471" width="80" height="40" as="geometry" />
        </mxCell>
        <mxCell id="pTJZXZqyClFcaM7wsfBn-33" value="&lt;font style=&quot;font-size: 24px;&quot;&gt;Contacto&lt;/font&gt;" style="rounded=0;whiteSpace=wrap;html=1;fillColor=none;" vertex="1" parent="1">
          <mxGeometry x="175" y="390" width="110" height="50" as="geometry" />
        </mxCell>
        <mxCell id="pTJZXZqyClFcaM7wsfBn-34" value="&lt;u&gt;ID_Contacto&lt;/u&gt;" style="ellipse;whiteSpace=wrap;html=1;fillColor=none;" vertex="1" parent="1">
          <mxGeometry x="190" y="480" width="80" height="40" as="geometry" />
        </mxCell>
        <mxCell id="pTJZXZqyClFcaM7wsfBn-35" value="Telefono" style="ellipse;whiteSpace=wrap;html=1;fillColor=none;" vertex="1" parent="1">
          <mxGeometry x="135" y="301" width="80" height="40" as="geometry" />
        </mxCell>
        <mxCell id="pTJZXZqyClFcaM7wsfBn-36" value="Telefono_Alternativo" style="ellipse;whiteSpace=wrap;html=1;fillColor=none;" vertex="1" parent="1">
          <mxGeometry x="10" y="395" width="120" height="40" as="geometry" />
        </mxCell>
        <mxCell id="pTJZXZqyClFcaM7wsfBn-37" value="Mail" style="ellipse;whiteSpace=wrap;html=1;fillColor=none;" vertex="1" parent="1">
          <mxGeometry x="345" y="395" width="80" height="40" as="geometry" />
        </mxCell>
        <mxCell id="pTJZXZqyClFcaM7wsfBn-38" value="&lt;font style=&quot;font-size: 14px;&quot;&gt;DatosAcademicos&lt;/font&gt;" style="rounded=0;whiteSpace=wrap;html=1;fillColor=none;" vertex="1" parent="1">
          <mxGeometry x="735" y="-150" width="110" height="60" as="geometry" />
        </mxCell>
        <mxCell id="pTJZXZqyClFcaM7wsfBn-39" value="&lt;u&gt;ID_Academico&lt;/u&gt;" style="ellipse;whiteSpace=wrap;html=1;fillColor=none;" vertex="1" parent="1">
          <mxGeometry x="875" y="-42" width="100" height="40" as="geometry" />
        </mxCell>
        <mxCell id="pTJZXZqyClFcaM7wsfBn-40" value="Carrera" style="ellipse;whiteSpace=wrap;html=1;fillColor=none;" vertex="1" parent="1">
          <mxGeometry x="785" y="-31" width="80" height="40" as="geometry" />
        </mxCell>
        <mxCell id="pTJZXZqyClFcaM7wsfBn-41" value="AñoIngreso" style="ellipse;whiteSpace=wrap;html=1;fillColor=none;" vertex="1" parent="1">
          <mxGeometry x="945" y="-130" width="80" height="40" as="geometry" />
        </mxCell>
        <mxCell id="pTJZXZqyClFcaM7wsfBn-42" value="Universidad" style="ellipse;whiteSpace=wrap;html=1;fillColor=none;" vertex="1" parent="1">
          <mxGeometry x="915" y="-180" width="80" height="40" as="geometry" />
        </mxCell>
        <mxCell id="pTJZXZqyClFcaM7wsfBn-43" value="Tipo" style="ellipse;whiteSpace=wrap;html=1;fillColor=none;" vertex="1" parent="1">
          <mxGeometry x="845" y="-232" width="80" height="40" as="geometry" />
        </mxCell>
        <mxCell id="pTJZXZqyClFcaM7wsfBn-44" value="Beca_Universidad" style="ellipse;whiteSpace=wrap;html=1;fillColor=none;" vertex="1" parent="1">
          <mxGeometry x="735" y="-250" width="100" height="40" as="geometry" />
        </mxCell>
        <mxCell id="pTJZXZqyClFcaM7wsfBn-47" value="Area" style="ellipse;whiteSpace=wrap;html=1;fillColor=none;" vertex="1" parent="1">
          <mxGeometry x="645" y="-220" width="80" height="40" as="geometry" />
        </mxCell>
        <mxCell id="pTJZXZqyClFcaM7wsfBn-48" value="Nivel_Ingles" style="ellipse;whiteSpace=wrap;html=1;fillColor=none;" vertex="1" parent="1">
          <mxGeometry x="575" y="-170" width="80" height="40" as="geometry" />
        </mxCell>
        <mxCell id="pTJZXZqyClFcaM7wsfBn-49" value="Examenes_Ingles" style="ellipse;whiteSpace=wrap;html=1;fillColor=none;" vertex="1" parent="1">
          <mxGeometry x="565" y="-107" width="110" height="40" as="geometry" />
        </mxCell>
        <mxCell id="pTJZXZqyClFcaM7wsfBn-50" value="&lt;font style=&quot;font-size: 14px;&quot;&gt;DatosLaborales&lt;/font&gt;" style="rounded=0;whiteSpace=wrap;html=1;fillColor=none;" vertex="1" parent="1">
          <mxGeometry x="277.5" y="-177" width="110" height="50" as="geometry" />
        </mxCell>
        <mxCell id="pTJZXZqyClFcaM7wsfBn-51" value="&lt;u&gt;ID_Laboral&lt;/u&gt;" style="ellipse;whiteSpace=wrap;html=1;fillColor=none;" vertex="1" parent="1">
          <mxGeometry x="172.5" y="-240" width="80" height="40" as="geometry" />
        </mxCell>
        <mxCell id="pTJZXZqyClFcaM7wsfBn-52" value="Estado" style="ellipse;whiteSpace=wrap;html=1;fillColor=none;" vertex="1" parent="1">
          <mxGeometry x="282.5" y="-257" width="80" height="40" as="geometry" />
        </mxCell>
        <mxCell id="pTJZXZqyClFcaM7wsfBn-53" value="Ubicacion" style="ellipse;whiteSpace=wrap;html=1;fillColor=none;" vertex="1" parent="1">
          <mxGeometry x="372.5" y="-240" width="80" height="40" as="geometry" />
        </mxCell>
        <mxCell id="pTJZXZqyClFcaM7wsfBn-54" value="Puesto" style="ellipse;whiteSpace=wrap;html=1;fillColor=none;" vertex="1" parent="1">
          <mxGeometry x="437.5" y="-200" width="80" height="40" as="geometry" />
        </mxCell>
        <mxCell id="pTJZXZqyClFcaM7wsfBn-55" value="CargaHoraria" style="ellipse;whiteSpace=wrap;html=1;fillColor=none;" vertex="1" parent="1">
          <mxGeometry x="147.5" y="-172" width="80" height="40" as="geometry" />
        </mxCell>
        <mxCell id="pTJZXZqyClFcaM7wsfBn-56" value="Busqueda-Laboral" style="ellipse;whiteSpace=wrap;html=1;fillColor=none;" vertex="1" parent="1">
          <mxGeometry x="432.5" y="-127" width="90" height="40" as="geometry" />
        </mxCell>
        <mxCell id="pTJZXZqyClFcaM7wsfBn-57" value="Linkedin" style="ellipse;whiteSpace=wrap;html=1;fillColor=none;" vertex="1" parent="1">
          <mxGeometry x="197.5" y="-97" width="80" height="40" as="geometry" />
        </mxCell>
        <mxCell id="pTJZXZqyClFcaM7wsfBn-58" value="Licencia_Ingles" style="ellipse;whiteSpace=wrap;html=1;fillColor=none;" vertex="1" parent="1">
          <mxGeometry x="640" y="511" width="85" height="40" as="geometry" />
        </mxCell>
        <mxCell id="pTJZXZqyClFcaM7wsfBn-59" value="&lt;font style=&quot;font-size: 18px;&quot;&gt;Informe-Becado&lt;/font&gt;" style="rounded=0;whiteSpace=wrap;html=1;fillColor=none;" vertex="1" parent="1">
          <mxGeometry x="-95" y="-41.5" width="110" height="50" as="geometry" />
        </mxCell>
        <mxCell id="pTJZXZqyClFcaM7wsfBn-60" value="&lt;u&gt;ID_Informe&lt;/u&gt;" style="ellipse;whiteSpace=wrap;html=1;fillColor=none;" vertex="1" parent="1">
          <mxGeometry x="-160" y="-111.5" width="70" height="40" as="geometry" />
        </mxCell>
        <mxCell id="pTJZXZqyClFcaM7wsfBn-61" value="Informe_Marzo_Abril" style="ellipse;whiteSpace=wrap;html=1;fillColor=none;" vertex="1" parent="1">
          <mxGeometry x="-270" y="-44.5" width="125" height="40" as="geometry" />
        </mxCell>
        <mxCell id="pTJZXZqyClFcaM7wsfBn-62" value="Informe_Julio_Agosto" style="ellipse;whiteSpace=wrap;html=1;fillColor=none;" vertex="1" parent="1">
          <mxGeometry x="-190" y="38.5" width="120" height="40" as="geometry" />
        </mxCell>
        <mxCell id="pTJZXZqyClFcaM7wsfBn-63" value="Informe_Noviembre_Diciembre" style="ellipse;whiteSpace=wrap;html=1;fillColor=none;" vertex="1" parent="1">
          <mxGeometry x="-60" y="52.5" width="180" height="50" as="geometry" />
        </mxCell>
        <mxCell id="pTJZXZqyClFcaM7wsfBn-64" value="Comentario" style="ellipse;whiteSpace=wrap;html=1;fillColor=none;" vertex="1" parent="1">
          <mxGeometry x="-60" y="-124.5" width="100" height="40" as="geometry" />
        </mxCell>
        <mxCell id="pTJZXZqyClFcaM7wsfBn-68" value="Grupo" style="ellipse;whiteSpace=wrap;html=1;fillColor=none;" vertex="1" parent="1">
          <mxGeometry x="605" y="213" width="80" height="40" as="geometry" />
        </mxCell>
        <mxCell id="pTJZXZqyClFcaM7wsfBn-69" value="Empresa" style="ellipse;whiteSpace=wrap;html=1;fillColor=none;" vertex="1" parent="1">
          <mxGeometry x="995" y="462" width="80" height="40" as="geometry" />
        </mxCell>
        <mxCell id="pTJZXZqyClFcaM7wsfBn-70" value="&lt;font style=&quot;font-size: 24px;&quot;&gt;Mentor&lt;/font&gt;" style="rounded=0;whiteSpace=wrap;html=1;fillColor=none;" vertex="1" parent="1">
          <mxGeometry x="1065" y="114" width="140" height="67" as="geometry" />
        </mxCell>
        <mxCell id="pTJZXZqyClFcaM7wsfBn-71" value="&lt;u&gt;ID_Mentor&lt;/u&gt;" style="ellipse;whiteSpace=wrap;html=1;fillColor=none;" vertex="1" parent="1">
          <mxGeometry x="917" y="173" width="80" height="40" as="geometry" />
        </mxCell>
        <mxCell id="pTJZXZqyClFcaM7wsfBn-72" value="Nombre" style="ellipse;whiteSpace=wrap;html=1;fillColor=none;" vertex="1" parent="1">
          <mxGeometry x="1010" y="47" width="80" height="40" as="geometry" />
        </mxCell>
        <mxCell id="pTJZXZqyClFcaM7wsfBn-73" value="Carrera" style="ellipse;whiteSpace=wrap;html=1;fillColor=none;" vertex="1" parent="1">
          <mxGeometry x="1115" y="33" width="80" height="40" as="geometry" />
        </mxCell>
        <mxCell id="pTJZXZqyClFcaM7wsfBn-74" value="Puesto" style="ellipse;whiteSpace=wrap;html=1;fillColor=none;" vertex="1" parent="1">
          <mxGeometry x="1300" y="119" width="80" height="40" as="geometry" />
        </mxCell>
        <mxCell id="pTJZXZqyClFcaM7wsfBn-75" value="Ubicacion" style="ellipse;whiteSpace=wrap;html=1;fillColor=none;" vertex="1" parent="1">
          <mxGeometry x="1310" y="181" width="80" height="40" as="geometry" />
        </mxCell>
        <mxCell id="pTJZXZqyClFcaM7wsfBn-76" value="Telefono" style="ellipse;whiteSpace=wrap;html=1;fillColor=none;" vertex="1" parent="1">
          <mxGeometry x="1270" y="230" width="80" height="40" as="geometry" />
        </mxCell>
        <mxCell id="pTJZXZqyClFcaM7wsfBn-77" value="Mail" style="ellipse;whiteSpace=wrap;html=1;fillColor=none;" vertex="1" parent="1">
          <mxGeometry x="1180" y="261" width="80" height="40" as="geometry" />
        </mxCell>
        <mxCell id="pTJZXZqyClFcaM7wsfBn-78" value="DNI" style="ellipse;whiteSpace=wrap;html=1;fillColor=none;" vertex="1" parent="1">
          <mxGeometry x="985" y="220" width="80" height="40" as="geometry" />
        </mxCell>
        <mxCell id="pTJZXZqyClFcaM7wsfBn-79" value="&lt;font style=&quot;font-size: 18px;&quot;&gt;Informe-Mentor&lt;/font&gt;" style="rounded=0;whiteSpace=wrap;html=1;fillColor=none;" vertex="1" parent="1">
          <mxGeometry x="1330" y="-87" width="110" height="50" as="geometry" />
        </mxCell>
        <mxCell id="pTJZXZqyClFcaM7wsfBn-80" value="&lt;u&gt;ID_Informe&lt;/u&gt;" style="ellipse;whiteSpace=wrap;html=1;fillColor=none;" vertex="1" parent="1">
          <mxGeometry x="1280" y="-150" width="70" height="40" as="geometry" />
        </mxCell>
        <mxCell id="pTJZXZqyClFcaM7wsfBn-81" value="Informe_Marzo_Abril" style="ellipse;whiteSpace=wrap;html=1;fillColor=none;" vertex="1" parent="1">
          <mxGeometry x="1385" y="7" width="125" height="43" as="geometry" />
        </mxCell>
        <mxCell id="pTJZXZqyClFcaM7wsfBn-82" value="Informe_Julio_Agosto" style="ellipse;whiteSpace=wrap;html=1;fillColor=none;" vertex="1" parent="1">
          <mxGeometry x="1485" y="-71" width="135" height="40" as="geometry" />
        </mxCell>
        <mxCell id="pTJZXZqyClFcaM7wsfBn-83" value="Informe_Noviembre_Diciembre" style="ellipse;whiteSpace=wrap;html=1;fillColor=none;" vertex="1" parent="1">
          <mxGeometry x="1470" y="-137" width="170" height="50" as="geometry" />
        </mxCell>
        <mxCell id="pTJZXZqyClFcaM7wsfBn-84" value="Comentario" style="ellipse;whiteSpace=wrap;html=1;fillColor=none;" vertex="1" parent="1">
          <mxGeometry x="1365" y="-170" width="100" height="40" as="geometry" />
        </mxCell>
        <mxCell id="pTJZXZqyClFcaM7wsfBn-85" value="Estado" style="ellipse;whiteSpace=wrap;html=1;fillColor=none;" vertex="1" parent="1">
          <mxGeometry x="1080" y="253" width="80" height="40" as="geometry" />
        </mxCell>
        <mxCell id="pTJZXZqyClFcaM7wsfBn-87" value="Contactado mediante" style="rhombus;whiteSpace=wrap;html=1;fillColor=none;" vertex="1" parent="1">
          <mxGeometry x="292.5" y="293" width="110" height="60" as="geometry" />
        </mxCell>
        <mxCell id="pTJZXZqyClFcaM7wsfBn-88" style="edgeStyle=orthogonalEdgeStyle;rounded=0;orthogonalLoop=1;jettySize=auto;html=1;exitX=0.5;exitY=1;exitDx=0;exitDy=0;" edge="1" parent="1" source="pTJZXZqyClFcaM7wsfBn-35" target="pTJZXZqyClFcaM7wsfBn-35">
          <mxGeometry relative="1" as="geometry" />
        </mxCell>
        <mxCell id="pTJZXZqyClFcaM7wsfBn-89" value="Tiene" style="rhombus;whiteSpace=wrap;html=1;fillColor=none;" vertex="1" parent="1">
          <mxGeometry x="290" y="-67" width="90" height="60" as="geometry" />
        </mxCell>
        <mxCell id="pTJZXZqyClFcaM7wsfBn-91" value="Posee" style="rhombus;whiteSpace=wrap;html=1;fillColor=none;" vertex="1" parent="1">
          <mxGeometry x="640" y="-24" width="90" height="60" as="geometry" />
        </mxCell>
        <mxCell id="pTJZXZqyClFcaM7wsfBn-92" value="Genera" style="rhombus;whiteSpace=wrap;html=1;fillColor=none;" vertex="1" parent="1">
          <mxGeometry x="1235" y="49" width="90" height="60" as="geometry" />
        </mxCell>
        <mxCell id="pTJZXZqyClFcaM7wsfBn-93" value="Realiza" style="rhombus;whiteSpace=wrap;html=1;fillColor=none;" vertex="1" parent="1">
          <mxGeometry x="120" y="-3" width="90" height="60" as="geometry" />
        </mxCell>
        <mxCell id="pTJZXZqyClFcaM7wsfBn-94" value="Guiado por" style="rhombus;whiteSpace=wrap;html=1;fillColor=none;" vertex="1" parent="1">
          <mxGeometry x="827" y="109" width="90" height="60" as="geometry" />
        </mxCell>
        <mxCell id="pTJZXZqyClFcaM7wsfBn-95" value="" style="endArrow=none;html=1;rounded=0;entryX=0.25;entryY=1;entryDx=0;entryDy=0;exitX=0.5;exitY=0;exitDx=0;exitDy=0;" edge="1" parent="1" source="pTJZXZqyClFcaM7wsfBn-87" target="pTJZXZqyClFcaM7wsfBn-4">
          <mxGeometry width="50" height="50" relative="1" as="geometry">
            <mxPoint x="690" y="150" as="sourcePoint" />
            <mxPoint x="740" y="100" as="targetPoint" />
          </mxGeometry>
        </mxCell>
        <mxCell id="pTJZXZqyClFcaM7wsfBn-96" value="" style="endArrow=none;html=1;rounded=0;entryX=0.5;entryY=1;entryDx=0;entryDy=0;exitX=0.145;exitY=0.008;exitDx=0;exitDy=0;exitPerimeter=0;" edge="1" parent="1" source="pTJZXZqyClFcaM7wsfBn-4" target="pTJZXZqyClFcaM7wsfBn-89">
          <mxGeometry width="50" height="50" relative="1" as="geometry">
            <mxPoint x="690" y="150" as="sourcePoint" />
            <mxPoint x="740" y="100" as="targetPoint" />
          </mxGeometry>
        </mxCell>
        <mxCell id="pTJZXZqyClFcaM7wsfBn-97" value="" style="endArrow=none;html=1;rounded=0;entryX=0;entryY=0.5;entryDx=0;entryDy=0;exitX=1;exitY=0;exitDx=0;exitDy=0;" edge="1" parent="1" source="pTJZXZqyClFcaM7wsfBn-4" target="pTJZXZqyClFcaM7wsfBn-91">
          <mxGeometry width="50" height="50" relative="1" as="geometry">
            <mxPoint x="548" y="105" as="sourcePoint" />
            <mxPoint x="740" y="100" as="targetPoint" />
          </mxGeometry>
        </mxCell>
        <mxCell id="pTJZXZqyClFcaM7wsfBn-98" value="" style="endArrow=none;html=1;rounded=0;entryX=1;entryY=0.5;entryDx=0;entryDy=0;exitX=0;exitY=0.25;exitDx=0;exitDy=0;" edge="1" parent="1" source="pTJZXZqyClFcaM7wsfBn-4" target="pTJZXZqyClFcaM7wsfBn-93">
          <mxGeometry width="50" height="50" relative="1" as="geometry">
            <mxPoint x="690" y="150" as="sourcePoint" />
            <mxPoint x="740" y="100" as="targetPoint" />
          </mxGeometry>
        </mxCell>
        <mxCell id="pTJZXZqyClFcaM7wsfBn-99" value="" style="endArrow=none;html=1;rounded=0;entryX=0.857;entryY=1.001;entryDx=0;entryDy=0;entryPerimeter=0;exitX=0.5;exitY=0;exitDx=0;exitDy=0;" edge="1" parent="1" source="pTJZXZqyClFcaM7wsfBn-20" target="pTJZXZqyClFcaM7wsfBn-4">
          <mxGeometry width="50" height="50" relative="1" as="geometry">
            <mxPoint x="690" y="150" as="sourcePoint" />
            <mxPoint x="740" y="100" as="targetPoint" />
          </mxGeometry>
        </mxCell>
        <mxCell id="pTJZXZqyClFcaM7wsfBn-100" value="" style="endArrow=none;html=1;rounded=0;entryX=0;entryY=0.5;entryDx=0;entryDy=0;exitX=1;exitY=0.5;exitDx=0;exitDy=0;" edge="1" parent="1" source="pTJZXZqyClFcaM7wsfBn-4" target="pTJZXZqyClFcaM7wsfBn-94">
          <mxGeometry width="50" height="50" relative="1" as="geometry">
            <mxPoint x="690" y="150" as="sourcePoint" />
            <mxPoint x="740" y="100" as="targetPoint" />
          </mxGeometry>
        </mxCell>
        <mxCell id="pTJZXZqyClFcaM7wsfBn-101" value="" style="endArrow=none;html=1;rounded=0;entryX=0;entryY=0.5;entryDx=0;entryDy=0;exitX=0.868;exitY=0.001;exitDx=0;exitDy=0;exitPerimeter=0;" edge="1" parent="1" source="pTJZXZqyClFcaM7wsfBn-70" target="pTJZXZqyClFcaM7wsfBn-92">
          <mxGeometry width="50" height="50" relative="1" as="geometry">
            <mxPoint x="1190" y="110" as="sourcePoint" />
            <mxPoint x="685" y="90" as="targetPoint" />
          </mxGeometry>
        </mxCell>
        <mxCell id="pTJZXZqyClFcaM7wsfBn-102" value="" style="endArrow=none;html=1;rounded=0;entryX=0.25;entryY=1;entryDx=0;entryDy=0;exitX=0.5;exitY=0;exitDx=0;exitDy=0;" edge="1" parent="1" source="pTJZXZqyClFcaM7wsfBn-92" target="pTJZXZqyClFcaM7wsfBn-79">
          <mxGeometry width="50" height="50" relative="1" as="geometry">
            <mxPoint x="1282.5" y="51" as="sourcePoint" />
            <mxPoint x="720" y="87" as="targetPoint" />
          </mxGeometry>
        </mxCell>
        <mxCell id="pTJZXZqyClFcaM7wsfBn-105" value="" style="endArrow=none;html=1;rounded=0;entryX=0;entryY=0.5;entryDx=0;entryDy=0;exitX=1;exitY=0.5;exitDx=0;exitDy=0;" edge="1" parent="1" source="pTJZXZqyClFcaM7wsfBn-94" target="pTJZXZqyClFcaM7wsfBn-70">
          <mxGeometry width="50" height="50" relative="1" as="geometry">
            <mxPoint x="690" y="150" as="sourcePoint" />
            <mxPoint x="740" y="100" as="targetPoint" />
          </mxGeometry>
        </mxCell>
        <mxCell id="pTJZXZqyClFcaM7wsfBn-106" value="" style="endArrow=none;html=1;rounded=0;entryX=1;entryY=0.5;entryDx=0;entryDy=0;exitX=0;exitY=0.25;exitDx=0;exitDy=0;" edge="1" parent="1" source="pTJZXZqyClFcaM7wsfBn-18" target="pTJZXZqyClFcaM7wsfBn-20">
          <mxGeometry width="50" height="50" relative="1" as="geometry">
            <mxPoint x="680" y="262" as="sourcePoint" />
            <mxPoint x="730" y="212" as="targetPoint" />
          </mxGeometry>
        </mxCell>
        <mxCell id="pTJZXZqyClFcaM7wsfBn-107" value="" style="endArrow=none;html=1;rounded=0;entryX=0;entryY=1;entryDx=0;entryDy=0;exitX=0.75;exitY=0;exitDx=0;exitDy=0;" edge="1" parent="1" source="pTJZXZqyClFcaM7wsfBn-33" target="pTJZXZqyClFcaM7wsfBn-87">
          <mxGeometry width="50" height="50" relative="1" as="geometry">
            <mxPoint x="690" y="150" as="sourcePoint" />
            <mxPoint x="740" y="100" as="targetPoint" />
          </mxGeometry>
        </mxCell>
        <mxCell id="pTJZXZqyClFcaM7wsfBn-108" value="" style="endArrow=none;html=1;rounded=0;entryX=1;entryY=0.5;entryDx=0;entryDy=0;exitX=0;exitY=0.5;exitDx=0;exitDy=0;" edge="1" parent="1" source="pTJZXZqyClFcaM7wsfBn-93" target="pTJZXZqyClFcaM7wsfBn-59">
          <mxGeometry width="50" height="50" relative="1" as="geometry">
            <mxPoint x="135" y="32.5" as="sourcePoint" />
            <mxPoint x="755" y="105.5" as="targetPoint" />
          </mxGeometry>
        </mxCell>
        <mxCell id="pTJZXZqyClFcaM7wsfBn-109" value="" style="endArrow=none;html=1;rounded=0;entryX=0.401;entryY=1.019;entryDx=0;entryDy=0;entryPerimeter=0;exitX=0.5;exitY=0;exitDx=0;exitDy=0;" edge="1" parent="1" source="pTJZXZqyClFcaM7wsfBn-89" target="pTJZXZqyClFcaM7wsfBn-50">
          <mxGeometry width="50" height="50" relative="1" as="geometry">
            <mxPoint x="347.5" y="-47.00000000000023" as="sourcePoint" />
            <mxPoint x="752.5" y="120" as="targetPoint" />
          </mxGeometry>
        </mxCell>
        <mxCell id="pTJZXZqyClFcaM7wsfBn-110" value="" style="endArrow=none;html=1;rounded=0;entryX=0.25;entryY=1;entryDx=0;entryDy=0;exitX=0.5;exitY=0;exitDx=0;exitDy=0;" edge="1" parent="1" source="pTJZXZqyClFcaM7wsfBn-91" target="pTJZXZqyClFcaM7wsfBn-38">
          <mxGeometry width="50" height="50" relative="1" as="geometry">
            <mxPoint x="682.5" y="-37" as="sourcePoint" />
            <mxPoint x="715" y="72" as="targetPoint" />
          </mxGeometry>
        </mxCell>
        <mxCell id="pTJZXZqyClFcaM7wsfBn-112" value="" style="endArrow=none;html=1;rounded=0;entryX=0.5;entryY=1;entryDx=0;entryDy=0;exitX=0.387;exitY=0;exitDx=0;exitDy=0;exitPerimeter=0;" edge="1" parent="1" source="pTJZXZqyClFcaM7wsfBn-40" target="pTJZXZqyClFcaM7wsfBn-38">
          <mxGeometry width="50" height="50" relative="1" as="geometry">
            <mxPoint x="730" y="-120" as="sourcePoint" />
            <mxPoint x="780" y="-170" as="targetPoint" />
          </mxGeometry>
        </mxCell>
        <mxCell id="pTJZXZqyClFcaM7wsfBn-113" value="" style="endArrow=none;html=1;rounded=0;entryX=0.85;entryY=1;entryDx=0;entryDy=0;exitX=0.5;exitY=0;exitDx=0;exitDy=0;entryPerimeter=0;" edge="1" parent="1" source="pTJZXZqyClFcaM7wsfBn-39" target="pTJZXZqyClFcaM7wsfBn-38">
          <mxGeometry width="50" height="50" relative="1" as="geometry">
            <mxPoint x="896" y="-21" as="sourcePoint" />
            <mxPoint x="870" y="-80" as="targetPoint" />
          </mxGeometry>
        </mxCell>
        <mxCell id="pTJZXZqyClFcaM7wsfBn-114" value="" style="endArrow=none;html=1;rounded=0;entryX=1;entryY=0.75;entryDx=0;entryDy=0;exitX=0;exitY=0.5;exitDx=0;exitDy=0;" edge="1" parent="1" source="pTJZXZqyClFcaM7wsfBn-41" target="pTJZXZqyClFcaM7wsfBn-38">
          <mxGeometry width="50" height="50" relative="1" as="geometry">
            <mxPoint x="967" y="-72" as="sourcePoint" />
            <mxPoint x="870" y="-120" as="targetPoint" />
          </mxGeometry>
        </mxCell>
        <mxCell id="pTJZXZqyClFcaM7wsfBn-115" value="" style="endArrow=none;html=1;rounded=0;entryX=1;entryY=0.5;entryDx=0;entryDy=0;exitX=0;exitY=0.5;exitDx=0;exitDy=0;" edge="1" parent="1" source="pTJZXZqyClFcaM7wsfBn-42" target="pTJZXZqyClFcaM7wsfBn-38">
          <mxGeometry width="50" height="50" relative="1" as="geometry">
            <mxPoint x="970" y="-150" as="sourcePoint" />
            <mxPoint x="870" y="-142" as="targetPoint" />
          </mxGeometry>
        </mxCell>
        <mxCell id="pTJZXZqyClFcaM7wsfBn-116" value="" style="endArrow=none;html=1;rounded=0;entryX=0.862;entryY=0;entryDx=0;entryDy=0;exitX=0.5;exitY=1;exitDx=0;exitDy=0;entryPerimeter=0;" edge="1" parent="1" source="pTJZXZqyClFcaM7wsfBn-43" target="pTJZXZqyClFcaM7wsfBn-38">
          <mxGeometry width="50" height="50" relative="1" as="geometry">
            <mxPoint x="930" y="-160" as="sourcePoint" />
            <mxPoint x="830" y="-152" as="targetPoint" />
          </mxGeometry>
        </mxCell>
        <mxCell id="pTJZXZqyClFcaM7wsfBn-117" value="" style="endArrow=none;html=1;rounded=0;entryX=0.5;entryY=0;entryDx=0;entryDy=0;exitX=0.5;exitY=1;exitDx=0;exitDy=0;" edge="1" parent="1" source="pTJZXZqyClFcaM7wsfBn-44" target="pTJZXZqyClFcaM7wsfBn-38">
          <mxGeometry width="50" height="50" relative="1" as="geometry">
            <mxPoint x="870" y="-170" as="sourcePoint" />
            <mxPoint x="770" y="-162" as="targetPoint" />
          </mxGeometry>
        </mxCell>
        <mxCell id="pTJZXZqyClFcaM7wsfBn-118" value="" style="endArrow=none;html=1;rounded=0;entryX=0.5;entryY=1;entryDx=0;entryDy=0;exitX=0.25;exitY=0;exitDx=0;exitDy=0;" edge="1" parent="1" source="pTJZXZqyClFcaM7wsfBn-38" target="pTJZXZqyClFcaM7wsfBn-47">
          <mxGeometry width="50" height="50" relative="1" as="geometry">
            <mxPoint x="830" y="-180" as="sourcePoint" />
            <mxPoint x="730" y="-172" as="targetPoint" />
          </mxGeometry>
        </mxCell>
        <mxCell id="pTJZXZqyClFcaM7wsfBn-119" value="" style="endArrow=none;html=1;rounded=0;entryX=1.008;entryY=0.618;entryDx=0;entryDy=0;exitX=0;exitY=0.25;exitDx=0;exitDy=0;entryPerimeter=0;" edge="1" parent="1" source="pTJZXZqyClFcaM7wsfBn-38" target="pTJZXZqyClFcaM7wsfBn-48">
          <mxGeometry width="50" height="50" relative="1" as="geometry">
            <mxPoint x="800" y="-140" as="sourcePoint" />
            <mxPoint x="700" y="-135" as="targetPoint" />
          </mxGeometry>
        </mxCell>
        <mxCell id="pTJZXZqyClFcaM7wsfBn-120" value="" style="endArrow=none;html=1;rounded=0;entryX=1;entryY=0.5;entryDx=0;entryDy=0;exitX=0;exitY=0.75;exitDx=0;exitDy=0;" edge="1" parent="1" source="pTJZXZqyClFcaM7wsfBn-38" target="pTJZXZqyClFcaM7wsfBn-49">
          <mxGeometry width="50" height="50" relative="1" as="geometry">
            <mxPoint x="759" y="-90" as="sourcePoint" />
            <mxPoint x="680" y="-100" as="targetPoint" />
          </mxGeometry>
        </mxCell>
        <mxCell id="pTJZXZqyClFcaM7wsfBn-121" value="" style="endArrow=none;html=1;rounded=0;entryX=0.5;entryY=1;entryDx=0;entryDy=0;exitX=0.102;exitY=0.007;exitDx=0;exitDy=0;exitPerimeter=0;" edge="1" parent="1" source="pTJZXZqyClFcaM7wsfBn-70" target="pTJZXZqyClFcaM7wsfBn-72">
          <mxGeometry width="50" height="50" relative="1" as="geometry">
            <mxPoint x="1040" y="190" as="sourcePoint" />
            <mxPoint x="1090" y="140" as="targetPoint" />
          </mxGeometry>
        </mxCell>
        <mxCell id="pTJZXZqyClFcaM7wsfBn-122" value="" style="endArrow=none;html=1;rounded=0;entryX=0.5;entryY=1;entryDx=0;entryDy=0;exitX=0.573;exitY=0.004;exitDx=0;exitDy=0;exitPerimeter=0;" edge="1" parent="1" source="pTJZXZqyClFcaM7wsfBn-70" target="pTJZXZqyClFcaM7wsfBn-73">
          <mxGeometry width="50" height="50" relative="1" as="geometry">
            <mxPoint x="1172" y="116" as="sourcePoint" />
            <mxPoint x="1140" y="90" as="targetPoint" />
          </mxGeometry>
        </mxCell>
        <mxCell id="pTJZXZqyClFcaM7wsfBn-123" value="" style="endArrow=none;html=1;rounded=0;entryX=1;entryY=0.5;entryDx=0;entryDy=0;exitX=0;exitY=0.5;exitDx=0;exitDy=0;" edge="1" parent="1" source="pTJZXZqyClFcaM7wsfBn-74" target="pTJZXZqyClFcaM7wsfBn-70">
          <mxGeometry width="50" height="50" relative="1" as="geometry">
            <mxPoint x="1292" y="166" as="sourcePoint" />
            <mxPoint x="1260" y="140" as="targetPoint" />
          </mxGeometry>
        </mxCell>
        <mxCell id="pTJZXZqyClFcaM7wsfBn-124" value="" style="endArrow=none;html=1;rounded=0;entryX=1;entryY=0.75;entryDx=0;entryDy=0;exitX=0;exitY=0.5;exitDx=0;exitDy=0;" edge="1" parent="1" source="pTJZXZqyClFcaM7wsfBn-75" target="pTJZXZqyClFcaM7wsfBn-70">
          <mxGeometry width="50" height="50" relative="1" as="geometry">
            <mxPoint x="1272" y="216" as="sourcePoint" />
            <mxPoint x="1240" y="190" as="targetPoint" />
          </mxGeometry>
        </mxCell>
        <mxCell id="pTJZXZqyClFcaM7wsfBn-125" value="" style="endArrow=none;html=1;rounded=0;entryX=1;entryY=1;entryDx=0;entryDy=0;exitX=0.5;exitY=0;exitDx=0;exitDy=0;" edge="1" parent="1" source="pTJZXZqyClFcaM7wsfBn-76" target="pTJZXZqyClFcaM7wsfBn-70">
          <mxGeometry width="50" height="50" relative="1" as="geometry">
            <mxPoint x="1272" y="236" as="sourcePoint" />
            <mxPoint x="1240" y="210" as="targetPoint" />
          </mxGeometry>
        </mxCell>
        <mxCell id="pTJZXZqyClFcaM7wsfBn-126" value="" style="endArrow=none;html=1;rounded=0;entryX=0.904;entryY=0.999;entryDx=0;entryDy=0;exitX=0.5;exitY=0;exitDx=0;exitDy=0;entryPerimeter=0;" edge="1" parent="1" source="pTJZXZqyClFcaM7wsfBn-77" target="pTJZXZqyClFcaM7wsfBn-70">
          <mxGeometry width="50" height="50" relative="1" as="geometry">
            <mxPoint x="1232" y="266" as="sourcePoint" />
            <mxPoint x="1200" y="240" as="targetPoint" />
          </mxGeometry>
        </mxCell>
        <mxCell id="pTJZXZqyClFcaM7wsfBn-127" value="" style="endArrow=none;html=1;rounded=0;entryX=0.579;entryY=1.002;entryDx=0;entryDy=0;exitX=0.5;exitY=0;exitDx=0;exitDy=0;entryPerimeter=0;" edge="1" parent="1" source="pTJZXZqyClFcaM7wsfBn-85" target="pTJZXZqyClFcaM7wsfBn-70">
          <mxGeometry width="50" height="50" relative="1" as="geometry">
            <mxPoint x="1162" y="246" as="sourcePoint" />
            <mxPoint x="1130" y="220" as="targetPoint" />
          </mxGeometry>
        </mxCell>
        <mxCell id="pTJZXZqyClFcaM7wsfBn-128" value="" style="endArrow=none;html=1;rounded=0;entryX=0.25;entryY=1;entryDx=0;entryDy=0;exitX=1;exitY=0.5;exitDx=0;exitDy=0;" edge="1" parent="1" source="pTJZXZqyClFcaM7wsfBn-78" target="pTJZXZqyClFcaM7wsfBn-70">
          <mxGeometry width="50" height="50" relative="1" as="geometry">
            <mxPoint x="1082" y="226" as="sourcePoint" />
            <mxPoint x="1050" y="200" as="targetPoint" />
          </mxGeometry>
        </mxCell>
        <mxCell id="pTJZXZqyClFcaM7wsfBn-129" value="" style="endArrow=none;html=1;rounded=0;exitX=1;exitY=0.5;exitDx=0;exitDy=0;entryX=-0.001;entryY=0.907;entryDx=0;entryDy=0;entryPerimeter=0;" edge="1" parent="1" source="pTJZXZqyClFcaM7wsfBn-71" target="pTJZXZqyClFcaM7wsfBn-70">
          <mxGeometry width="50" height="50" relative="1" as="geometry">
            <mxPoint x="1040" y="190" as="sourcePoint" />
            <mxPoint x="1090" y="140" as="targetPoint" />
          </mxGeometry>
        </mxCell>
        <mxCell id="pTJZXZqyClFcaM7wsfBn-130" value="" style="endArrow=none;html=1;rounded=0;entryX=0.003;entryY=0.413;entryDx=0;entryDy=0;entryPerimeter=0;exitX=1;exitY=0.5;exitDx=0;exitDy=0;" edge="1" parent="1" source="pTJZXZqyClFcaM7wsfBn-33" target="pTJZXZqyClFcaM7wsfBn-37">
          <mxGeometry width="50" height="50" relative="1" as="geometry">
            <mxPoint x="270" y="430" as="sourcePoint" />
            <mxPoint x="320" y="380" as="targetPoint" />
          </mxGeometry>
        </mxCell>
        <mxCell id="pTJZXZqyClFcaM7wsfBn-131" value="" style="endArrow=none;html=1;rounded=0;entryX=0;entryY=0.5;entryDx=0;entryDy=0;exitX=1;exitY=1;exitDx=0;exitDy=0;" edge="1" parent="1" source="pTJZXZqyClFcaM7wsfBn-50" target="pTJZXZqyClFcaM7wsfBn-56">
          <mxGeometry width="50" height="50" relative="1" as="geometry">
            <mxPoint x="362.5" y="-150" as="sourcePoint" />
            <mxPoint x="412.5" y="-200" as="targetPoint" />
          </mxGeometry>
        </mxCell>
        <mxCell id="pTJZXZqyClFcaM7wsfBn-132" value="" style="endArrow=none;html=1;rounded=0;entryX=0;entryY=0.5;entryDx=0;entryDy=0;exitX=1.002;exitY=0.392;exitDx=0;exitDy=0;exitPerimeter=0;" edge="1" parent="1" source="pTJZXZqyClFcaM7wsfBn-50" target="pTJZXZqyClFcaM7wsfBn-54">
          <mxGeometry width="50" height="50" relative="1" as="geometry">
            <mxPoint x="362.5" y="-150" as="sourcePoint" />
            <mxPoint x="412.5" y="-200" as="targetPoint" />
          </mxGeometry>
        </mxCell>
        <mxCell id="pTJZXZqyClFcaM7wsfBn-133" value="" style="endArrow=none;html=1;rounded=0;entryX=0.456;entryY=1.019;entryDx=0;entryDy=0;entryPerimeter=0;exitX=1;exitY=0;exitDx=0;exitDy=0;" edge="1" parent="1" source="pTJZXZqyClFcaM7wsfBn-50" target="pTJZXZqyClFcaM7wsfBn-53">
          <mxGeometry width="50" height="50" relative="1" as="geometry">
            <mxPoint x="382.5" y="-150" as="sourcePoint" />
            <mxPoint x="432.5" y="-200" as="targetPoint" />
          </mxGeometry>
        </mxCell>
        <mxCell id="pTJZXZqyClFcaM7wsfBn-134" value="" style="endArrow=none;html=1;rounded=0;entryX=0.547;entryY=1.009;entryDx=0;entryDy=0;entryPerimeter=0;exitX=0.575;exitY=0.012;exitDx=0;exitDy=0;exitPerimeter=0;" edge="1" parent="1" source="pTJZXZqyClFcaM7wsfBn-50" target="pTJZXZqyClFcaM7wsfBn-52">
          <mxGeometry width="50" height="50" relative="1" as="geometry">
            <mxPoint x="342.5" y="-150" as="sourcePoint" />
            <mxPoint x="392.5" y="-200" as="targetPoint" />
          </mxGeometry>
        </mxCell>
        <mxCell id="pTJZXZqyClFcaM7wsfBn-135" value="" style="endArrow=none;html=1;rounded=0;entryX=0.891;entryY=0.809;entryDx=0;entryDy=0;entryPerimeter=0;exitX=0;exitY=0;exitDx=0;exitDy=0;" edge="1" parent="1" source="pTJZXZqyClFcaM7wsfBn-50" target="pTJZXZqyClFcaM7wsfBn-51">
          <mxGeometry width="50" height="50" relative="1" as="geometry">
            <mxPoint x="282.5" y="-140" as="sourcePoint" />
            <mxPoint x="332.5" y="-190" as="targetPoint" />
          </mxGeometry>
        </mxCell>
        <mxCell id="pTJZXZqyClFcaM7wsfBn-136" value="" style="endArrow=none;html=1;rounded=0;entryX=1.002;entryY=0.583;entryDx=0;entryDy=0;entryPerimeter=0;exitX=0;exitY=0.5;exitDx=0;exitDy=0;" edge="1" parent="1" source="pTJZXZqyClFcaM7wsfBn-50" target="pTJZXZqyClFcaM7wsfBn-55">
          <mxGeometry width="50" height="50" relative="1" as="geometry">
            <mxPoint x="232.5" y="-100" as="sourcePoint" />
            <mxPoint x="282.5" y="-150" as="targetPoint" />
          </mxGeometry>
        </mxCell>
        <mxCell id="pTJZXZqyClFcaM7wsfBn-137" value="" style="endArrow=none;html=1;rounded=0;entryX=0.579;entryY=-0.012;entryDx=0;entryDy=0;entryPerimeter=0;exitX=0.118;exitY=1.004;exitDx=0;exitDy=0;exitPerimeter=0;" edge="1" parent="1" source="pTJZXZqyClFcaM7wsfBn-50" target="pTJZXZqyClFcaM7wsfBn-57">
          <mxGeometry width="50" height="50" relative="1" as="geometry">
            <mxPoint x="302.5" y="-110" as="sourcePoint" />
            <mxPoint x="252.5" y="-107" as="targetPoint" />
          </mxGeometry>
        </mxCell>
        <mxCell id="pTJZXZqyClFcaM7wsfBn-138" value="" style="endArrow=none;html=1;rounded=0;entryX=0.5;entryY=1;entryDx=0;entryDy=0;exitX=0.75;exitY=0;exitDx=0;exitDy=0;" edge="1" parent="1" source="pTJZXZqyClFcaM7wsfBn-59" target="pTJZXZqyClFcaM7wsfBn-64">
          <mxGeometry width="50" height="50" relative="1" as="geometry">
            <mxPoint x="155" y="45.5" as="sourcePoint" />
            <mxPoint x="205" y="-4.5" as="targetPoint" />
          </mxGeometry>
        </mxCell>
        <mxCell id="pTJZXZqyClFcaM7wsfBn-139" value="" style="endArrow=none;html=1;rounded=0;entryX=0.57;entryY=0.998;entryDx=0;entryDy=0;entryPerimeter=0;exitX=0.1;exitY=-0.009;exitDx=0;exitDy=0;exitPerimeter=0;" edge="1" parent="1" source="pTJZXZqyClFcaM7wsfBn-59" target="pTJZXZqyClFcaM7wsfBn-60">
          <mxGeometry width="50" height="50" relative="1" as="geometry">
            <mxPoint x="-45" y="-64.5" as="sourcePoint" />
            <mxPoint x="-95" y="-61.5" as="targetPoint" />
          </mxGeometry>
        </mxCell>
        <mxCell id="pTJZXZqyClFcaM7wsfBn-140" value="" style="endArrow=none;html=1;rounded=0;entryX=1;entryY=0.5;entryDx=0;entryDy=0;exitX=-0.003;exitY=0.357;exitDx=0;exitDy=0;exitPerimeter=0;" edge="1" parent="1" source="pTJZXZqyClFcaM7wsfBn-59" target="pTJZXZqyClFcaM7wsfBn-61">
          <mxGeometry width="50" height="50" relative="1" as="geometry">
            <mxPoint x="-85" y="-14.5" as="sourcePoint" />
            <mxPoint x="-135" y="-11.5" as="targetPoint" />
          </mxGeometry>
        </mxCell>
        <mxCell id="pTJZXZqyClFcaM7wsfBn-141" value="" style="endArrow=none;html=1;rounded=0;entryX=0.084;entryY=1.012;entryDx=0;entryDy=0;entryPerimeter=0;exitX=0.775;exitY=0.068;exitDx=0;exitDy=0;exitPerimeter=0;" edge="1" parent="1" source="pTJZXZqyClFcaM7wsfBn-62" target="pTJZXZqyClFcaM7wsfBn-59">
          <mxGeometry width="50" height="50" relative="1" as="geometry">
            <mxPoint x="-105" y="45.5" as="sourcePoint" />
            <mxPoint x="-55" y="-4.5" as="targetPoint" />
          </mxGeometry>
        </mxCell>
        <mxCell id="pTJZXZqyClFcaM7wsfBn-142" value="" style="endArrow=none;html=1;rounded=0;entryX=0.582;entryY=0.999;entryDx=0;entryDy=0;entryPerimeter=0;exitX=0.486;exitY=0.006;exitDx=0;exitDy=0;exitPerimeter=0;" edge="1" parent="1" source="pTJZXZqyClFcaM7wsfBn-63" target="pTJZXZqyClFcaM7wsfBn-59">
          <mxGeometry width="50" height="50" relative="1" as="geometry">
            <mxPoint x="-125" y="45.5" as="sourcePoint" />
            <mxPoint x="-75" y="-4.5" as="targetPoint" />
          </mxGeometry>
        </mxCell>
        <mxCell id="pTJZXZqyClFcaM7wsfBn-144" value="" style="endArrow=none;html=1;rounded=0;entryX=0;entryY=0.587;entryDx=0;entryDy=0;entryPerimeter=0;exitX=1;exitY=0;exitDx=0;exitDy=0;" edge="1" parent="1" source="pTJZXZqyClFcaM7wsfBn-79" target="pTJZXZqyClFcaM7wsfBn-83">
          <mxGeometry width="50" height="50" relative="1" as="geometry">
            <mxPoint x="1440" y="-20" as="sourcePoint" />
            <mxPoint x="1490" y="-70" as="targetPoint" />
          </mxGeometry>
        </mxCell>
        <mxCell id="pTJZXZqyClFcaM7wsfBn-145" value="" style="endArrow=none;html=1;rounded=0;entryX=1;entryY=0.5;entryDx=0;entryDy=0;exitX=0;exitY=0.5;exitDx=0;exitDy=0;" edge="1" parent="1" source="pTJZXZqyClFcaM7wsfBn-82" target="pTJZXZqyClFcaM7wsfBn-79">
          <mxGeometry width="50" height="50" relative="1" as="geometry">
            <mxPoint x="1520" y="-60" as="sourcePoint" />
            <mxPoint x="1470" y="-57" as="targetPoint" />
          </mxGeometry>
        </mxCell>
        <mxCell id="pTJZXZqyClFcaM7wsfBn-146" value="" style="endArrow=none;html=1;rounded=0;exitX=0.818;exitY=0.988;exitDx=0;exitDy=0;exitPerimeter=0;entryX=0.478;entryY=0.004;entryDx=0;entryDy=0;entryPerimeter=0;" edge="1" parent="1" source="pTJZXZqyClFcaM7wsfBn-79" target="pTJZXZqyClFcaM7wsfBn-81">
          <mxGeometry width="50" height="50" relative="1" as="geometry">
            <mxPoint x="1440" y="-20" as="sourcePoint" />
            <mxPoint x="1490" y="-70" as="targetPoint" />
          </mxGeometry>
        </mxCell>
        <mxCell id="pTJZXZqyClFcaM7wsfBn-147" value="" style="endArrow=none;html=1;rounded=0;entryX=0.482;entryY=1.011;entryDx=0;entryDy=0;entryPerimeter=0;exitX=0.75;exitY=0;exitDx=0;exitDy=0;" edge="1" parent="1" source="pTJZXZqyClFcaM7wsfBn-79" target="pTJZXZqyClFcaM7wsfBn-84">
          <mxGeometry width="50" height="50" relative="1" as="geometry">
            <mxPoint x="1440" y="-60" as="sourcePoint" />
            <mxPoint x="1490" y="-110" as="targetPoint" />
          </mxGeometry>
        </mxCell>
        <mxCell id="pTJZXZqyClFcaM7wsfBn-148" value="" style="endArrow=none;html=1;rounded=0;entryX=0.575;entryY=0.98;entryDx=0;entryDy=0;entryPerimeter=0;exitX=0.113;exitY=0.006;exitDx=0;exitDy=0;exitPerimeter=0;" edge="1" parent="1" source="pTJZXZqyClFcaM7wsfBn-79" target="pTJZXZqyClFcaM7wsfBn-80">
          <mxGeometry width="50" height="50" relative="1" as="geometry">
            <mxPoint x="1440" y="-60" as="sourcePoint" />
            <mxPoint x="1490" y="-110" as="targetPoint" />
          </mxGeometry>
        </mxCell>
        <mxCell id="pTJZXZqyClFcaM7wsfBn-149" value="" style="endArrow=none;html=1;rounded=0;entryX=0.5;entryY=1;entryDx=0;entryDy=0;exitX=0.5;exitY=0;exitDx=0;exitDy=0;" edge="1" parent="1" source="pTJZXZqyClFcaM7wsfBn-18" target="pTJZXZqyClFcaM7wsfBn-28">
          <mxGeometry width="50" height="50" relative="1" as="geometry">
            <mxPoint x="690" y="381" as="sourcePoint" />
            <mxPoint x="740" y="331" as="targetPoint" />
          </mxGeometry>
        </mxCell>
        <mxCell id="pTJZXZqyClFcaM7wsfBn-150" value="" style="endArrow=none;html=1;rounded=0;entryX=0.5;entryY=1;entryDx=0;entryDy=0;exitX=0.75;exitY=0;exitDx=0;exitDy=0;" edge="1" parent="1" source="pTJZXZqyClFcaM7wsfBn-18" target="pTJZXZqyClFcaM7wsfBn-27">
          <mxGeometry width="50" height="50" relative="1" as="geometry">
            <mxPoint x="910" y="351" as="sourcePoint" />
            <mxPoint x="860" y="354" as="targetPoint" />
          </mxGeometry>
        </mxCell>
        <mxCell id="pTJZXZqyClFcaM7wsfBn-151" value="" style="endArrow=none;html=1;rounded=0;entryX=0.5;entryY=1;entryDx=0;entryDy=0;exitX=1;exitY=0;exitDx=0;exitDy=0;" edge="1" parent="1" source="pTJZXZqyClFcaM7wsfBn-18" target="pTJZXZqyClFcaM7wsfBn-26">
          <mxGeometry width="50" height="50" relative="1" as="geometry">
            <mxPoint x="900" y="391" as="sourcePoint" />
            <mxPoint x="850" y="371" as="targetPoint" />
          </mxGeometry>
        </mxCell>
        <mxCell id="pTJZXZqyClFcaM7wsfBn-154" value="" style="endArrow=none;html=1;rounded=0;entryX=0;entryY=0.5;entryDx=0;entryDy=0;exitX=1;exitY=0.5;exitDx=0;exitDy=0;" edge="1" parent="1" source="pTJZXZqyClFcaM7wsfBn-18" target="pTJZXZqyClFcaM7wsfBn-22">
          <mxGeometry width="50" height="50" relative="1" as="geometry">
            <mxPoint x="910" y="411" as="sourcePoint" />
            <mxPoint x="960" y="361" as="targetPoint" />
          </mxGeometry>
        </mxCell>
        <mxCell id="pTJZXZqyClFcaM7wsfBn-155" value="" style="endArrow=none;html=1;rounded=0;entryX=1;entryY=0.75;entryDx=0;entryDy=0;exitX=0;exitY=0.5;exitDx=0;exitDy=0;" edge="1" parent="1" source="pTJZXZqyClFcaM7wsfBn-69" target="pTJZXZqyClFcaM7wsfBn-18">
          <mxGeometry width="50" height="50" relative="1" as="geometry">
            <mxPoint x="870" y="501" as="sourcePoint" />
            <mxPoint x="920" y="451" as="targetPoint" />
          </mxGeometry>
        </mxCell>
        <mxCell id="pTJZXZqyClFcaM7wsfBn-157" value="" style="endArrow=none;html=1;rounded=0;entryX=0.939;entryY=0.996;entryDx=0;entryDy=0;entryPerimeter=0;exitX=0.474;exitY=0.016;exitDx=0;exitDy=0;exitPerimeter=0;" edge="1" parent="1" source="pTJZXZqyClFcaM7wsfBn-21" target="pTJZXZqyClFcaM7wsfBn-18">
          <mxGeometry width="50" height="50" relative="1" as="geometry">
            <mxPoint x="870" y="501" as="sourcePoint" />
            <mxPoint x="920" y="451" as="targetPoint" />
          </mxGeometry>
        </mxCell>
        <mxCell id="pTJZXZqyClFcaM7wsfBn-158" value="" style="endArrow=none;html=1;rounded=0;entryX=0.75;entryY=1;entryDx=0;entryDy=0;exitX=0.5;exitY=0;exitDx=0;exitDy=0;" edge="1" parent="1" source="pTJZXZqyClFcaM7wsfBn-19" target="pTJZXZqyClFcaM7wsfBn-18">
          <mxGeometry width="50" height="50" relative="1" as="geometry">
            <mxPoint x="870" y="531" as="sourcePoint" />
            <mxPoint x="920" y="481" as="targetPoint" />
          </mxGeometry>
        </mxCell>
        <mxCell id="pTJZXZqyClFcaM7wsfBn-159" value="" style="endArrow=none;html=1;rounded=0;entryX=0.5;entryY=1;entryDx=0;entryDy=0;exitX=0.5;exitY=0;exitDx=0;exitDy=0;" edge="1" parent="1" source="pTJZXZqyClFcaM7wsfBn-31" target="pTJZXZqyClFcaM7wsfBn-18">
          <mxGeometry width="50" height="50" relative="1" as="geometry">
            <mxPoint x="870" y="501" as="sourcePoint" />
            <mxPoint x="920" y="451" as="targetPoint" />
          </mxGeometry>
        </mxCell>
        <mxCell id="pTJZXZqyClFcaM7wsfBn-160" value="" style="endArrow=none;html=1;rounded=0;entryX=0.25;entryY=1;entryDx=0;entryDy=0;exitX=0.5;exitY=0;exitDx=0;exitDy=0;" edge="1" parent="1" source="pTJZXZqyClFcaM7wsfBn-58" target="pTJZXZqyClFcaM7wsfBn-18">
          <mxGeometry width="50" height="50" relative="1" as="geometry">
            <mxPoint x="770" y="531" as="sourcePoint" />
            <mxPoint x="820" y="481" as="targetPoint" />
          </mxGeometry>
        </mxCell>
        <mxCell id="pTJZXZqyClFcaM7wsfBn-161" value="" style="endArrow=none;html=1;rounded=0;entryX=0;entryY=1;entryDx=0;entryDy=0;exitX=1;exitY=0.5;exitDx=0;exitDy=0;" edge="1" parent="1" source="pTJZXZqyClFcaM7wsfBn-32" target="pTJZXZqyClFcaM7wsfBn-18">
          <mxGeometry width="50" height="50" relative="1" as="geometry">
            <mxPoint x="770" y="501" as="sourcePoint" />
            <mxPoint x="820" y="451" as="targetPoint" />
          </mxGeometry>
        </mxCell>
        <mxCell id="pTJZXZqyClFcaM7wsfBn-162" value="" style="endArrow=none;html=1;rounded=0;entryX=0;entryY=0.75;entryDx=0;entryDy=0;exitX=1;exitY=0.5;exitDx=0;exitDy=0;" edge="1" parent="1" source="pTJZXZqyClFcaM7wsfBn-30" target="pTJZXZqyClFcaM7wsfBn-18">
          <mxGeometry width="50" height="50" relative="1" as="geometry">
            <mxPoint x="770" y="441" as="sourcePoint" />
            <mxPoint x="820" y="391" as="targetPoint" />
          </mxGeometry>
        </mxCell>
        <mxCell id="pTJZXZqyClFcaM7wsfBn-163" value="" style="endArrow=none;html=1;rounded=0;entryX=0.5;entryY=1;entryDx=0;entryDy=0;exitX=0.25;exitY=0;exitDx=0;exitDy=0;" edge="1" parent="1" source="pTJZXZqyClFcaM7wsfBn-18" target="pTJZXZqyClFcaM7wsfBn-29">
          <mxGeometry width="50" height="50" relative="1" as="geometry">
            <mxPoint x="770" y="381" as="sourcePoint" />
            <mxPoint x="820" y="331" as="targetPoint" />
          </mxGeometry>
        </mxCell>
        <mxCell id="pTJZXZqyClFcaM7wsfBn-164" value="" style="endArrow=none;html=1;rounded=0;entryX=0;entryY=0.5;entryDx=0;entryDy=0;exitX=1.001;exitY=0.151;exitDx=0;exitDy=0;exitPerimeter=0;" edge="1" parent="1" source="pTJZXZqyClFcaM7wsfBn-18" target="pTJZXZqyClFcaM7wsfBn-25">
          <mxGeometry width="50" height="50" relative="1" as="geometry">
            <mxPoint x="800" y="401" as="sourcePoint" />
            <mxPoint x="850" y="351" as="targetPoint" />
          </mxGeometry>
        </mxCell>
        <mxCell id="pTJZXZqyClFcaM7wsfBn-165" value="Programa" style="ellipse;whiteSpace=wrap;html=1;fillColor=none;" vertex="1" parent="1">
          <mxGeometry x="550" y="362" width="80" height="40" as="geometry" />
        </mxCell>
        <mxCell id="pTJZXZqyClFcaM7wsfBn-166" value="" style="endArrow=none;html=1;rounded=0;entryX=0;entryY=0.5;entryDx=0;entryDy=0;exitX=1;exitY=0.5;exitDx=0;exitDy=0;" edge="1" parent="1" source="pTJZXZqyClFcaM7wsfBn-165" target="pTJZXZqyClFcaM7wsfBn-18">
          <mxGeometry width="50" height="50" relative="1" as="geometry">
            <mxPoint x="800" y="481" as="sourcePoint" />
            <mxPoint x="850" y="431" as="targetPoint" />
          </mxGeometry>
        </mxCell>
        <mxCell id="pTJZXZqyClFcaM7wsfBn-167" value="" style="endArrow=none;html=1;rounded=0;entryX=0.75;entryY=1;entryDx=0;entryDy=0;exitX=0.5;exitY=0;exitDx=0;exitDy=0;" edge="1" parent="1" source="pTJZXZqyClFcaM7wsfBn-7" target="pTJZXZqyClFcaM7wsfBn-4">
          <mxGeometry width="50" height="50" relative="1" as="geometry">
            <mxPoint x="380" y="200" as="sourcePoint" />
            <mxPoint x="430" y="150" as="targetPoint" />
          </mxGeometry>
        </mxCell>
        <mxCell id="pTJZXZqyClFcaM7wsfBn-169" value="" style="endArrow=none;html=1;rounded=0;entryX=0.5;entryY=1;entryDx=0;entryDy=0;exitX=0.5;exitY=0;exitDx=0;exitDy=0;" edge="1" parent="1" source="pTJZXZqyClFcaM7wsfBn-6" target="pTJZXZqyClFcaM7wsfBn-4">
          <mxGeometry width="50" height="50" relative="1" as="geometry">
            <mxPoint x="467" y="277" as="sourcePoint" />
            <mxPoint x="460" y="220" as="targetPoint" />
          </mxGeometry>
        </mxCell>
        <mxCell id="pTJZXZqyClFcaM7wsfBn-170" value="" style="endArrow=none;html=1;rounded=0;entryX=0;entryY=1;entryDx=0;entryDy=0;exitX=1;exitY=0;exitDx=0;exitDy=0;" edge="1" parent="1" source="pTJZXZqyClFcaM7wsfBn-5" target="pTJZXZqyClFcaM7wsfBn-4">
          <mxGeometry width="50" height="50" relative="1" as="geometry">
            <mxPoint x="407" y="237" as="sourcePoint" />
            <mxPoint x="400" y="180" as="targetPoint" />
          </mxGeometry>
        </mxCell>
        <mxCell id="pTJZXZqyClFcaM7wsfBn-171" value="" style="endArrow=none;html=1;rounded=0;entryX=0;entryY=0.75;entryDx=0;entryDy=0;exitX=1;exitY=0.5;exitDx=0;exitDy=0;" edge="1" parent="1" source="pTJZXZqyClFcaM7wsfBn-8" target="pTJZXZqyClFcaM7wsfBn-4">
          <mxGeometry width="50" height="50" relative="1" as="geometry">
            <mxPoint x="357" y="227" as="sourcePoint" />
            <mxPoint x="350" y="170" as="targetPoint" />
          </mxGeometry>
        </mxCell>
        <mxCell id="pTJZXZqyClFcaM7wsfBn-172" value="" style="endArrow=none;html=1;rounded=0;entryX=0;entryY=0.5;entryDx=0;entryDy=0;exitX=1;exitY=0.5;exitDx=0;exitDy=0;" edge="1" parent="1" source="pTJZXZqyClFcaM7wsfBn-9" target="pTJZXZqyClFcaM7wsfBn-4">
          <mxGeometry width="50" height="50" relative="1" as="geometry">
            <mxPoint x="367" y="207" as="sourcePoint" />
            <mxPoint x="360" y="150" as="targetPoint" />
          </mxGeometry>
        </mxCell>
        <mxCell id="pTJZXZqyClFcaM7wsfBn-173" value="" style="endArrow=none;html=1;rounded=0;entryX=0;entryY=0;entryDx=0;entryDy=0;exitX=1;exitY=1;exitDx=0;exitDy=0;" edge="1" parent="1" source="pTJZXZqyClFcaM7wsfBn-10" target="pTJZXZqyClFcaM7wsfBn-4">
          <mxGeometry width="50" height="50" relative="1" as="geometry">
            <mxPoint x="380" y="80" as="sourcePoint" />
            <mxPoint x="430" y="30" as="targetPoint" />
          </mxGeometry>
        </mxCell>
        <mxCell id="pTJZXZqyClFcaM7wsfBn-174" value="" style="endArrow=none;html=1;rounded=0;entryX=0.5;entryY=1;entryDx=0;entryDy=0;exitX=0.25;exitY=0;exitDx=0;exitDy=0;" edge="1" parent="1" source="pTJZXZqyClFcaM7wsfBn-4" target="pTJZXZqyClFcaM7wsfBn-11">
          <mxGeometry width="50" height="50" relative="1" as="geometry">
            <mxPoint x="380" y="80" as="sourcePoint" />
            <mxPoint x="430" y="30" as="targetPoint" />
          </mxGeometry>
        </mxCell>
        <mxCell id="pTJZXZqyClFcaM7wsfBn-175" value="" style="endArrow=none;html=1;rounded=0;entryX=0.5;entryY=1;entryDx=0;entryDy=0;exitX=0.75;exitY=0;exitDx=0;exitDy=0;" edge="1" parent="1" source="pTJZXZqyClFcaM7wsfBn-4" target="pTJZXZqyClFcaM7wsfBn-12">
          <mxGeometry width="50" height="50" relative="1" as="geometry">
            <mxPoint x="537" y="127" as="sourcePoint" />
            <mxPoint x="530" y="70" as="targetPoint" />
          </mxGeometry>
        </mxCell>
        <mxCell id="pTJZXZqyClFcaM7wsfBn-176" value="" style="endArrow=none;html=1;rounded=0;entryX=0;entryY=1;entryDx=0;entryDy=0;exitX=1.001;exitY=0.202;exitDx=0;exitDy=0;exitPerimeter=0;" edge="1" parent="1" source="pTJZXZqyClFcaM7wsfBn-4" target="pTJZXZqyClFcaM7wsfBn-13">
          <mxGeometry width="50" height="50" relative="1" as="geometry">
            <mxPoint x="500" y="140" as="sourcePoint" />
            <mxPoint x="550" y="90" as="targetPoint" />
          </mxGeometry>
        </mxCell>
        <mxCell id="pTJZXZqyClFcaM7wsfBn-177" value="" style="endArrow=none;html=1;rounded=0;entryX=0;entryY=0.5;entryDx=0;entryDy=0;exitX=0.996;exitY=0.372;exitDx=0;exitDy=0;exitPerimeter=0;" edge="1" parent="1" source="pTJZXZqyClFcaM7wsfBn-4" target="pTJZXZqyClFcaM7wsfBn-15">
          <mxGeometry width="50" height="50" relative="1" as="geometry">
            <mxPoint x="500" y="140" as="sourcePoint" />
            <mxPoint x="550" y="90" as="targetPoint" />
          </mxGeometry>
        </mxCell>
        <mxCell id="pTJZXZqyClFcaM7wsfBn-178" value="" style="endArrow=none;html=1;rounded=0;entryX=0;entryY=0;entryDx=0;entryDy=0;exitX=1;exitY=1;exitDx=0;exitDy=0;" edge="1" parent="1" source="pTJZXZqyClFcaM7wsfBn-4" target="pTJZXZqyClFcaM7wsfBn-68">
          <mxGeometry width="50" height="50" relative="1" as="geometry">
            <mxPoint x="560" y="250" as="sourcePoint" />
            <mxPoint x="610" y="200" as="targetPoint" />
          </mxGeometry>
        </mxCell>
        <mxCell id="pTJZXZqyClFcaM7wsfBn-179" value="" style="endArrow=none;html=1;rounded=0;entryX=0;entryY=0.5;entryDx=0;entryDy=0;exitX=1;exitY=0.75;exitDx=0;exitDy=0;" edge="1" parent="1" source="pTJZXZqyClFcaM7wsfBn-4" target="pTJZXZqyClFcaM7wsfBn-16">
          <mxGeometry width="50" height="50" relative="1" as="geometry">
            <mxPoint x="560" y="190" as="sourcePoint" />
            <mxPoint x="610" y="140" as="targetPoint" />
          </mxGeometry>
        </mxCell>
        <mxCell id="pTJZXZqyClFcaM7wsfBn-181" value="" style="endArrow=none;html=1;rounded=0;entryX=1;entryY=1;entryDx=0;entryDy=0;exitX=0.5;exitY=0;exitDx=0;exitDy=0;" edge="1" parent="1" source="pTJZXZqyClFcaM7wsfBn-33" target="pTJZXZqyClFcaM7wsfBn-35">
          <mxGeometry width="50" height="50" relative="1" as="geometry">
            <mxPoint x="300" y="380" as="sourcePoint" />
            <mxPoint x="350" y="330" as="targetPoint" />
          </mxGeometry>
        </mxCell>
        <mxCell id="pTJZXZqyClFcaM7wsfBn-182" value="" style="endArrow=none;html=1;rounded=0;entryX=0;entryY=0.5;entryDx=0;entryDy=0;exitX=1;exitY=0.5;exitDx=0;exitDy=0;" edge="1" parent="1" source="pTJZXZqyClFcaM7wsfBn-36" target="pTJZXZqyClFcaM7wsfBn-33">
          <mxGeometry width="50" height="50" relative="1" as="geometry">
            <mxPoint x="300" y="380" as="sourcePoint" />
            <mxPoint x="350" y="330" as="targetPoint" />
          </mxGeometry>
        </mxCell>
        <mxCell id="pTJZXZqyClFcaM7wsfBn-183" value="" style="endArrow=none;html=1;rounded=0;entryX=0.5;entryY=1;entryDx=0;entryDy=0;exitX=0.5;exitY=0;exitDx=0;exitDy=0;" edge="1" parent="1" source="pTJZXZqyClFcaM7wsfBn-34" target="pTJZXZqyClFcaM7wsfBn-33">
          <mxGeometry width="50" height="50" relative="1" as="geometry">
            <mxPoint x="300" y="440" as="sourcePoint" />
            <mxPoint x="350" y="390" as="targetPoint" />
          </mxGeometry>
        </mxCell>
        <mxCell id="pTJZXZqyClFcaM7wsfBn-186" value="(1,N)" style="text;html=1;align=center;verticalAlign=middle;resizable=0;points=[];autosize=1;strokeColor=none;fillColor=none;" vertex="1" parent="1">
          <mxGeometry x="150" y="-34.5" width="50" height="30" as="geometry" />
        </mxCell>
        <mxCell id="pTJZXZqyClFcaM7wsfBn-187" value="(0,1)" style="text;html=1;align=center;verticalAlign=middle;resizable=0;points=[];autosize=1;strokeColor=none;fillColor=none;" vertex="1" parent="1">
          <mxGeometry x="625" y="274" width="50" height="30" as="geometry" />
        </mxCell>
        <mxCell id="pTJZXZqyClFcaM7wsfBn-188" value="(1,1)" style="text;html=1;align=center;verticalAlign=middle;resizable=0;points=[];autosize=1;strokeColor=none;fillColor=none;" vertex="1" parent="1">
          <mxGeometry x="285" y="274" width="50" height="30" as="geometry" />
        </mxCell>
        <mxCell id="pTJZXZqyClFcaM7wsfBn-189" value="(1,1)" style="text;html=1;align=center;verticalAlign=middle;resizable=0;points=[];autosize=1;strokeColor=none;fillColor=none;" vertex="1" parent="1">
          <mxGeometry x="337.5" y="-84.5" width="50" height="30" as="geometry" />
        </mxCell>
        <mxCell id="pTJZXZqyClFcaM7wsfBn-190" value="(0,1)" style="text;html=1;align=center;verticalAlign=middle;resizable=0;points=[];autosize=1;strokeColor=none;fillColor=none;" vertex="1" parent="1">
          <mxGeometry x="845" y="78.5" width="50" height="30" as="geometry" />
        </mxCell>
        <mxCell id="pTJZXZqyClFcaM7wsfBn-191" value="(1,N)" style="text;html=1;align=center;verticalAlign=middle;resizable=0;points=[];autosize=1;strokeColor=none;fillColor=none;" vertex="1" parent="1">
          <mxGeometry x="1235" y="25" width="50" height="30" as="geometry" />
        </mxCell>
        <mxCell id="pTJZXZqyClFcaM7wsfBn-192" value="(1,1)" style="text;html=1;align=center;verticalAlign=middle;resizable=0;points=[];autosize=1;strokeColor=none;fillColor=none;" vertex="1" parent="1">
          <mxGeometry x="630" y="-44.5" width="50" height="30" as="geometry" />
        </mxCell>
      </root>
    </mxGraphModel>
  </diagram>
</mxfile>
